# xmcd
#
# Track frame offsets:
#	150
#	19841
#	42240
#	65719
#	83538
#	100155
#	119344
#	139041
#	161284
#	185411
#	207730
#	224875
#	244794
#	273489
#
# Disc length: 3892 seconds
#
# Revision: 0
# Processed by: cddbd v1.5.2PL0 Copyright (c) Steve Scherf et al.
# Submitted via: EZCDAudioConverter 7.1.0.1
#
DISCID=d00f320e
DTITLE=群星 - 唱世纪Ⅰ 滚石辉煌30周年 CD2 - 天作之合2／祝福
DYEAR=2002
DGENRE=
TTITLE0=辛晓琪／郭子 - 祝福
TTITLE1=成龙／陈淑桦 - 明明白白我的心
TTITLE2=辛晓琪／赵传 - 仿佛是昨天
TTITLE3=周华健／李度 - 难以抗拒
TTITLE4=杜德伟／林忆莲 - 我心仍在
TTITLE5=无印良品 - 多心
TTITLE6=李心洁／任贤齐 - 为了爱
TTITLE7=梁静茹／光良 - 只能抱着你
TTITLE8=伍佰／莫文蔚 - 坚强的理由
TTITLE9=郭子／李度 - 放手去爱
TTITLE10=李宗盛／张艾嘉 - 爱情有什么道理
TTITLE11=黄品源／黄品冠 - 征婚启事
TTITLE12=伍佰／莫文蔚 - 冬至
TTITLE13=张国荣／辛晓琪 - 眉来眼去
EXTD=
EXTT0=
EXTT1=
EXTT2=
EXTT3=
EXTT4=
EXTT5=
EXTT6=
EXTT7=
EXTT8=
EXTT9=
EXTT10=
EXTT11=
EXTT12=
EXTT13=
PLAYORDER=
